<svg width="25" height="29" viewBox="0 0 25 29" fill="none" xmlns="http://www.w3.org/2000/svg">
<path d="M20.1644 15.2743C20.1506 12.9051 21.2168 11.1196 23.3699 9.80303C22.1657 8.06614 20.3439 7.11085 17.9423 6.92673C15.6685 6.7461 13.1807 8.26067 12.2698 8.26067C11.3071 8.26067 9.10574 6.98926 7.37361 6.98926C3.79895 7.04484 0 9.85861 0 15.5834C0 17.2752 0.30709 19.0225 0.92127 20.8219C1.74248 23.191 4.70296 28.9957 7.79112 28.9019C9.40593 28.8637 10.548 27.7486 12.6493 27.7486C14.6886 27.7486 15.7444 28.9019 17.5455 28.9019C20.6613 28.8568 23.3388 23.5801 24.1186 21.204C19.9401 19.2205 20.1644 15.3958 20.1644 15.2743ZM16.538 4.67919C18.2874 2.58797 18.1287 0.684336 18.0769 0C16.5311 0.0903185 14.7438 1.05951 13.7259 2.25102C12.6045 3.52937 11.9455 5.10994 12.0869 6.892C13.7569 7.02053 15.282 6.15555 16.538 4.67919Z" fill="#0677E8"/>
</svg>
